<svg width="32" height="32" viewBox="0 0 32 32" fill="none" xmlns="http://www.w3.org/2000/svg">
<path d="M25.6146 22.5409H23.9958L23.422 21.9876C25.4302 19.6516 26.6392 16.6188 26.6392 13.3196C26.6392 5.96309 20.6761 0 13.3196 0C5.96309 0 0 5.96309 0 13.3196C0 20.6761 5.96309 26.6392 13.3196 26.6392C16.6188 26.6392 19.6516 25.4302 21.9876 23.422L22.5409 23.9958V25.6146L28.9467 32L32 28.9467L25.6146 22.5409ZM13.3196 22.5409C8.21718 22.5409 4.09834 18.422 4.09834 13.3196C4.09834 8.21718 8.21718 4.09834 13.3196 4.09834C18.422 4.09834 22.5409 8.21718 22.5409 13.3196C22.5409 18.422 18.422 22.5409 13.3196 22.5409Z" fill="#2C4CC9"/>
</svg>
